<svg width="44" height="48" viewBox="0 0 44 48" fill="none" xmlns="http://www.w3.org/2000/svg">
<path fill-rule="evenodd" clip-rule="evenodd" d="M4.71968 29.0628C5.71753 30.0549 5.71751 31.6634 4.71965 32.6555L4.66855 32.7063C3.67068 33.6984 2.05284 33.6984 1.05499 32.7063C0.0571463 31.7142 0.0571616 30.1057 1.05503 29.1136L1.10613 29.0628C2.10399 28.0707 3.72184 28.0707 4.71968 29.0628Z" fill="#C4EAEF"/>
<path fill-rule="evenodd" clip-rule="evenodd" d="M16.7322 29.8281C17.7283 30.822 17.7254 32.4305 16.7257 33.4208L9.64789 40.4323C8.64823 41.4226 7.03039 41.4197 6.03434 40.4258C5.03829 39.4319 5.04122 37.8234 6.04088 36.8331L13.1187 29.8216C14.1184 28.8313 15.7362 28.8342 16.7322 29.8281Z" fill="#84CDDA"/>
<path fill-rule="evenodd" clip-rule="evenodd" d="M26.3385 41.898C27.1213 40.7306 28.7078 40.4151 29.8819 41.1934L30.0352 41.295C31.2094 42.0733 31.5267 43.6506 30.7439 44.8179C29.9611 45.9853 28.3747 46.3008 27.2005 45.5225L27.0472 45.4209C25.873 44.6427 25.5558 43.0654 26.3385 41.898Z" fill="#C4EAEF"/>
<path fill-rule="evenodd" clip-rule="evenodd" d="M43.2005 28.9103C44.1984 29.9024 44.1984 31.5109 43.2005 32.503L39.7255 35.958C38.7276 36.9501 37.1098 36.9501 36.1119 35.958C35.1141 34.9659 35.1141 33.3574 36.1119 32.3653L39.5869 28.9103C40.5848 27.9182 42.2026 27.9182 43.2005 28.9103Z" fill="#84CDDA"/>
<path fill-rule="evenodd" clip-rule="evenodd" d="M43.2516 16.1321C44.2495 17.1242 44.2495 18.7327 43.2516 19.7248L17.5722 45.2559C16.5743 46.248 14.9565 46.248 13.9586 45.2559C12.9608 44.2638 12.9608 42.6553 13.9586 41.6632L39.6381 16.1321C40.6359 15.14 42.2538 15.14 43.2516 16.1321Z" fill="#05A2C2"/>
<path fill-rule="evenodd" clip-rule="evenodd" d="M38.3968 8.28216C39.3947 9.27425 39.3947 10.8828 38.3968 11.8748L23.6279 26.5584C22.6301 27.5505 21.0122 27.5505 20.0144 26.5584C19.0165 25.5664 19.0165 23.9579 20.0144 22.9658L34.7832 8.28216C35.7811 7.29006 37.3989 7.29006 38.3968 8.28216Z" fill="#05A2C2"/>
<path fill-rule="evenodd" clip-rule="evenodd" d="M30.6023 3.30176C31.6008 4.29319 31.6019 5.90169 30.6047 6.89445L11.6198 25.7951C10.6227 26.7879 9.00481 26.789 8.00628 25.7976C7.00776 24.8061 7.00667 23.1976 8.00385 22.2049L26.9888 3.30418C27.9859 2.31142 29.6038 2.31034 30.6023 3.30176Z" fill="#05A2C2"/>
<path fill-rule="evenodd" clip-rule="evenodd" d="M11.8006 9.35227C12.7967 10.3461 12.7939 11.9546 11.7944 12.945L4.35883 20.3122C3.35926 21.3025 1.74142 21.2998 0.745284 20.306C-0.250852 19.3122 -0.248067 17.7037 0.751504 16.7133L8.18704 9.34608C9.18661 8.3557 10.8045 8.35847 11.8006 9.35227Z" fill="#84CDDA"/>
<path fill-rule="evenodd" clip-rule="evenodd" d="M16.3531 2C17.7643 2 18.9082 3.13738 18.9082 4.54042V4.79446C18.9082 6.19749 17.7643 7.33487 16.3531 7.33487C14.9419 7.33487 13.7979 6.19749 13.7979 4.79446V4.54042C13.7979 3.13738 14.9419 2 16.3531 2Z" fill="#C4EAEF"/>
</svg>
