<svg width="165" height="35" viewBox="0 0 165 35" fill="none" xmlns="http://www.w3.org/2000/svg">
<path fill-rule="evenodd" clip-rule="evenodd" d="M3.43249 21.1916C4.1582 21.915 4.15819 23.0879 3.43247 23.8113L3.3953 23.8483C2.66958 24.5717 1.49297 24.5717 0.767264 23.8483C0.0415581 23.1249 0.0415693 21.952 0.767289 21.2286L0.804455 21.1916C1.53018 20.4682 2.70679 20.4682 3.43249 21.1916Z" fill="#C4EAEF"/>
<path fill-rule="evenodd" clip-rule="evenodd" d="M12.1689 21.7496C12.8933 22.4743 12.8912 23.6471 12.1642 24.3692L7.01666 29.4818C6.28963 30.2039 5.11302 30.2018 4.38862 29.4771C3.66422 28.7524 3.66635 27.5795 4.39337 26.8574L9.54088 21.7448C10.2679 21.0227 11.4445 21.0249 12.1689 21.7496Z" fill="#84CDDA"/>
<path fill-rule="evenodd" clip-rule="evenodd" d="M19.1553 30.5506C19.7246 29.6994 20.8784 29.4693 21.7323 30.0368L21.8438 30.1109C22.6977 30.6784 22.9285 31.8285 22.3592 32.6797C21.7899 33.5309 20.6361 33.761 19.7822 33.1935L19.6707 33.1194C18.8168 32.5519 18.586 31.4018 19.1553 30.5506Z" fill="#C4EAEF"/>
<path fill-rule="evenodd" clip-rule="evenodd" d="M31.4186 21.0805C32.1443 21.8039 32.1443 22.9767 31.4186 23.7001L28.8913 26.2194C28.1655 26.9428 26.9889 26.9428 26.2632 26.2194C25.5375 25.496 25.5375 24.3231 26.2632 23.5997L28.7905 21.0805C29.5162 20.3571 30.6928 20.3571 31.4186 21.0805Z" fill="#84CDDA"/>
<path fill-rule="evenodd" clip-rule="evenodd" d="M31.4557 11.7629C32.1814 12.4864 32.1814 13.6592 31.4557 14.3826L12.7798 32.9991C12.054 33.7225 10.8774 33.7225 10.1517 32.9991C9.42601 32.2757 9.42601 31.1028 10.1517 30.3794L28.8277 11.7629C29.5534 11.0395 30.73 11.0395 31.4557 11.7629Z" fill="#05A2C2"/>
<path fill-rule="evenodd" clip-rule="evenodd" d="M27.9249 6.03907C28.6507 6.76248 28.6507 7.93534 27.9249 8.65874L17.1839 19.3655C16.4582 20.0889 15.2816 20.0889 14.5559 19.3655C13.8302 18.6421 13.8302 17.4693 14.5559 16.7459L25.2969 6.03907C26.0226 5.31567 27.1992 5.31567 27.9249 6.03907Z" fill="#05A2C2"/>
<path fill-rule="evenodd" clip-rule="evenodd" d="M22.2562 2.40752C22.9824 3.13043 22.9832 4.3033 22.258 5.02719L8.4508 18.8089C7.72557 19.5328 6.54896 19.5336 5.82276 18.8107C5.09656 18.0878 5.09576 16.9149 5.82099 16.191L19.6282 2.40928C20.3534 1.68539 21.53 1.6846 22.2562 2.40752Z" fill="#05A2C2"/>
<path fill-rule="evenodd" clip-rule="evenodd" d="M8.58225 6.81934C9.30671 7.54399 9.30469 8.71685 8.57773 9.43901L3.17006 14.8109C2.4431 15.5331 1.26649 15.5311 0.542025 14.8064C-0.182438 14.0818 -0.180413 12.9089 0.546548 12.1868L5.95421 6.81484C6.68117 6.09268 7.85779 6.0947 8.58225 6.81934Z" fill="#84CDDA"/>
<path fill-rule="evenodd" clip-rule="evenodd" d="M11.8931 1.45831C12.9195 1.45831 13.7514 2.28765 13.7514 3.3107V3.49594C13.7514 4.51898 12.9195 5.34832 11.8931 5.34832C10.8668 5.34832 10.0348 4.51898 10.0348 3.49594V3.3107C10.0348 2.28765 10.8668 1.45831 11.8931 1.45831Z" fill="#C4EAEF"/>
<path d="M51.904 26.788C50.368 26.788 49.08 26.348 48.04 25.468C47 24.572 46.48 23.284 46.48 21.604H49.912C49.912 22.228 50.096 22.708 50.464 23.044C50.848 23.38 51.328 23.548 51.904 23.548C52.48 23.548 52.952 23.388 53.32 23.068C53.704 22.732 53.896 22.244 53.896 21.604V9.46H57.352V21.844C57.352 23.476 56.832 24.708 55.792 25.54C54.752 26.372 53.456 26.788 51.904 26.788ZM70.4118 24.964C69.1798 26.164 67.6918 26.764 65.9478 26.764C64.2038 26.764 62.7158 26.164 61.4838 24.964C60.2518 23.748 59.6357 22.26 59.6357 20.5C59.6357 18.756 60.2518 17.276 61.4838 16.06C62.7158 14.844 64.2038 14.236 65.9478 14.236C67.6918 14.236 69.1798 14.844 70.4118 16.06C71.6438 17.276 72.2598 18.756 72.2598 20.5C72.2598 22.26 71.6438 23.748 70.4118 24.964ZM65.9478 23.692C66.7958 23.692 67.4998 23.396 68.0598 22.804C68.6358 22.196 68.9238 21.428 68.9238 20.5C68.9238 19.572 68.6358 18.812 68.0598 18.22C67.4998 17.612 66.7958 17.308 65.9478 17.308C65.0838 17.308 64.3638 17.612 63.7878 18.22C63.2278 18.812 62.9478 19.572 62.9478 20.5C62.9478 21.428 63.2278 22.196 63.7878 22.804C64.3638 23.396 65.0838 23.692 65.9478 23.692ZM78.9989 26.764C77.5749 26.764 76.4629 26.284 75.6629 25.324C74.8789 24.364 74.4869 23.076 74.4869 21.46V14.5H77.7749V20.908C77.7749 22.812 78.4549 23.764 79.8149 23.764C80.5829 23.764 81.1829 23.476 81.6149 22.9C82.0629 22.324 82.2869 21.476 82.2869 20.356V14.5H85.5749V26.5H82.2869V25.132C81.5509 26.22 80.4549 26.764 78.9989 26.764ZM88.7402 26.5V14.5H92.0283V16.42C92.2363 15.828 92.6123 15.34 93.1562 14.956C93.7163 14.556 94.3323 14.356 95.0043 14.356C95.4203 14.356 95.7883 14.404 96.1083 14.5V17.836C95.5803 17.66 95.0843 17.572 94.6203 17.572C93.8363 17.572 93.2043 17.86 92.7243 18.436C92.2603 18.996 92.0283 19.772 92.0283 20.764V26.5H88.7402ZM98.209 26.5V14.5H101.497V15.868C102.233 14.78 103.377 14.236 104.929 14.236C106.369 14.236 107.497 14.716 108.313 15.676C109.145 16.62 109.561 17.884 109.561 19.468V26.5H106.273V20.02C106.273 19.14 106.089 18.46 105.721 17.98C105.353 17.484 104.833 17.236 104.161 17.236C103.361 17.236 102.713 17.524 102.217 18.1C101.737 18.676 101.497 19.524 101.497 20.644V26.5H98.209ZM117.448 26.764C115.864 26.764 114.528 26.148 113.44 24.916C112.352 23.684 111.808 22.212 111.808 20.5C111.808 18.788 112.352 17.316 113.44 16.084C114.528 14.852 115.864 14.236 117.448 14.236C118.216 14.236 118.904 14.396 119.512 14.716C120.12 15.036 120.584 15.412 120.904 15.844V14.5H124.192V26.5H120.904V25.156C120.584 25.588 120.12 25.964 119.512 26.284C118.904 26.604 118.216 26.764 117.448 26.764ZM115.936 22.852C116.496 23.46 117.232 23.764 118.144 23.764C119.056 23.764 119.784 23.46 120.328 22.852C120.888 22.244 121.168 21.46 121.168 20.5C121.168 19.54 120.888 18.756 120.328 18.148C119.784 17.54 119.056 17.236 118.144 17.236C117.232 17.236 116.496 17.54 115.936 18.148C115.392 18.756 115.12 19.54 115.12 20.5C115.12 21.46 115.392 22.244 115.936 22.852ZM127.389 26.5V8.5H130.677V26.5H127.389ZM135.466 12.532C134.906 12.532 134.418 12.332 134.002 11.932C133.586 11.516 133.378 11.02 133.378 10.444C133.378 9.868 133.586 9.38 134.002 8.98C134.418 8.564 134.906 8.356 135.466 8.356C136.058 8.356 136.554 8.564 136.954 8.98C137.37 9.38 137.578 9.868 137.578 10.444C137.578 11.02 137.37 11.516 136.954 11.932C136.554 12.332 136.058 12.532 135.466 12.532ZM133.834 26.5V14.5H137.122V26.5H133.834ZM139.679 26.5V23.932L145.295 17.476H139.751V14.5H149.543V17.092L143.927 23.524H149.735V26.5H139.679ZM157.66 26.764C155.836 26.764 154.316 26.188 153.1 25.036C151.9 23.884 151.3 22.372 151.3 20.5C151.3 18.708 151.9 17.22 153.1 16.036C154.3 14.836 155.804 14.236 157.612 14.236C159.276 14.236 160.676 14.756 161.812 15.796C162.948 16.82 163.516 18.268 163.516 20.14C163.516 20.668 163.5 21.044 163.468 21.268H154.492C154.588 22.052 154.932 22.668 155.524 23.116C156.132 23.548 156.852 23.764 157.684 23.764C159.092 23.764 160.124 23.26 160.78 22.252L163.228 24.076C161.996 25.868 160.14 26.764 157.66 26.764ZM154.612 19.036H160.228C160.084 18.348 159.756 17.828 159.244 17.476C158.748 17.124 158.172 16.948 157.516 16.948C156.844 16.948 156.228 17.124 155.668 17.476C155.108 17.828 154.756 18.348 154.612 19.036Z" fill="black"/>
</svg>
